<mxfile host="Electron" agent="Mozilla/5.0 (Windows NT 10.0; Win64; x64) AppleWebKit/537.36 (KHTML, like Gecko) draw.io/25.0.2 Chrome/128.0.6613.186 Electron/32.2.5 Safari/537.36" version="25.0.2">
  <diagram name="第 1 页" id="5KSprpMwUYVPSRvnmA9z">
    <mxGraphModel dx="1764" dy="1354" grid="1" gridSize="1" guides="1" tooltips="1" connect="1" arrows="1" fold="1" page="1" pageScale="1" pageWidth="1654" pageHeight="1169" background="#E6E6E6" math="0" shadow="0">
      <root>
        <mxCell id="0" />
        <mxCell id="1" parent="0" />
        <mxCell id="aX4mZ3GyK745tZyWNKG7-83" value="" style="rounded=0;whiteSpace=wrap;html=1;strokeColor=none;fillColor=#0000FF;opacity=30;" parent="1" vertex="1">
          <mxGeometry x="486.56" y="509" width="481.44" height="95" as="geometry" />
        </mxCell>
        <mxCell id="EGFDkehEQVp23pimZ-VM-31" value="" style="endArrow=none;html=1;rounded=0;" parent="1" edge="1">
          <mxGeometry width="50" height="50" relative="1" as="geometry">
            <mxPoint x="552" y="224" as="sourcePoint" />
            <mxPoint x="611" y="224" as="targetPoint" />
            <Array as="points" />
          </mxGeometry>
        </mxCell>
        <mxCell id="EGFDkehEQVp23pimZ-VM-32" value="" style="endArrow=none;html=1;rounded=0;" parent="1" edge="1">
          <mxGeometry width="50" height="50" relative="1" as="geometry">
            <mxPoint x="552" y="279" as="sourcePoint" />
            <mxPoint x="611" y="279" as="targetPoint" />
            <Array as="points" />
          </mxGeometry>
        </mxCell>
        <mxCell id="EGFDkehEQVp23pimZ-VM-51" value="" style="endArrow=blockThin;html=1;rounded=0;endFill=1;" parent="1" edge="1">
          <mxGeometry width="50" height="50" relative="1" as="geometry">
            <mxPoint x="465" y="224.10000000000002" as="sourcePoint" />
            <mxPoint x="483.76" y="224.04999999999995" as="targetPoint" />
          </mxGeometry>
        </mxCell>
        <mxCell id="EGFDkehEQVp23pimZ-VM-117" value="&lt;font style=&quot;font-size: 10px;&quot;&gt;人間の里・博麗神社方面&lt;/font&gt;" style="text;strokeColor=none;align=center;fillColor=none;html=1;verticalAlign=middle;whiteSpace=wrap;rounded=0;" parent="1" vertex="1">
          <mxGeometry x="600" y="237" width="129" height="30" as="geometry" />
        </mxCell>
        <mxCell id="EGFDkehEQVp23pimZ-VM-120" value="&lt;font style=&quot;font-size: 60px;&quot;&gt;&lt;font style=&quot;font-size: 60px;&quot;&gt;幻想郷鉄道配&lt;/font&gt;線略図&lt;/font&gt;&lt;font style=&quot;font-size: 40px;&quot;&gt;（旧都本線）&lt;/font&gt;" style="text;strokeColor=none;align=center;fillColor=none;html=1;verticalAlign=middle;whiteSpace=wrap;rounded=0;" parent="1" vertex="1">
          <mxGeometry x="41.510000000000005" y="22" width="1449" height="96" as="geometry" />
        </mxCell>
        <mxCell id="-fVv7rPrCd2kUO5Vlaj1-45" value="&lt;span style=&quot;font-size: 15px;&quot;&gt;&lt;b&gt;環状線&lt;/b&gt;&lt;/span&gt;" style="text;strokeColor=none;align=center;fillColor=none;html=1;verticalAlign=middle;whiteSpace=wrap;rounded=0;" parent="1" vertex="1">
          <mxGeometry x="323" y="255.11" width="56" height="30" as="geometry" />
        </mxCell>
        <mxCell id="JexUMbqz_i8q1vHDtlvt-6" value="" style="rounded=0;whiteSpace=wrap;html=1;" parent="1" vertex="1">
          <mxGeometry x="442.44" y="228.10000000000002" width="78.56" height="20" as="geometry" />
        </mxCell>
        <mxCell id="JexUMbqz_i8q1vHDtlvt-7" value="" style="rounded=0;whiteSpace=wrap;html=1;" parent="1" vertex="1">
          <mxGeometry x="442.44" y="255.10000000000002" width="78.56" height="20" as="geometry" />
        </mxCell>
        <mxCell id="JexUMbqz_i8q1vHDtlvt-8" value="守矢神社" style="text;strokeColor=none;align=center;fillColor=none;html=1;verticalAlign=middle;whiteSpace=wrap;rounded=0;" parent="1" vertex="1">
          <mxGeometry x="445.22700000000003" y="290.10699999999997" width="72.99" height="30" as="geometry" />
        </mxCell>
        <mxCell id="JexUMbqz_i8q1vHDtlvt-15" value="" style="endArrow=none;html=1;rounded=0;" parent="1" edge="1">
          <mxGeometry width="50" height="50" relative="1" as="geometry">
            <mxPoint x="442" y="224.10000000000002" as="sourcePoint" />
            <mxPoint x="552" y="224" as="targetPoint" />
            <Array as="points">
              <mxPoint x="521" y="224.10000000000002" />
            </Array>
          </mxGeometry>
        </mxCell>
        <mxCell id="JexUMbqz_i8q1vHDtlvt-16" value="" style="endArrow=none;html=1;rounded=0;" parent="1" edge="1">
          <mxGeometry width="50" height="50" relative="1" as="geometry">
            <mxPoint x="442" y="279.1" as="sourcePoint" />
            <mxPoint x="552" y="279" as="targetPoint" />
            <Array as="points">
              <mxPoint x="521" y="279.1" />
            </Array>
          </mxGeometry>
        </mxCell>
        <mxCell id="JexUMbqz_i8q1vHDtlvt-17" value="" style="endArrow=none;html=1;rounded=0;" parent="1" edge="1">
          <mxGeometry width="50" height="50" relative="1" as="geometry">
            <mxPoint x="364" y="252.10000000000002" as="sourcePoint" />
            <mxPoint x="550" y="279" as="targetPoint" />
            <Array as="points">
              <mxPoint x="525" y="252" />
            </Array>
          </mxGeometry>
        </mxCell>
        <mxCell id="JexUMbqz_i8q1vHDtlvt-18" value="" style="endArrow=none;html=1;rounded=0;" parent="1" edge="1">
          <mxGeometry width="50" height="50" relative="1" as="geometry">
            <mxPoint x="525" y="252" as="sourcePoint" />
            <mxPoint x="550" y="224" as="targetPoint" />
          </mxGeometry>
        </mxCell>
        <mxCell id="JexUMbqz_i8q1vHDtlvt-19" value="" style="endArrow=none;html=1;rounded=0;" parent="1" edge="1">
          <mxGeometry width="50" height="50" relative="1" as="geometry">
            <mxPoint x="415" y="252.10000000000002" as="sourcePoint" />
            <mxPoint x="442" y="224.10000000000002" as="targetPoint" />
          </mxGeometry>
        </mxCell>
        <mxCell id="JexUMbqz_i8q1vHDtlvt-20" value="" style="endArrow=none;html=1;rounded=0;" parent="1" edge="1">
          <mxGeometry width="50" height="50" relative="1" as="geometry">
            <mxPoint x="442" y="279.1" as="sourcePoint" />
            <mxPoint x="415" y="252.10000000000002" as="targetPoint" />
          </mxGeometry>
        </mxCell>
        <mxCell id="JexUMbqz_i8q1vHDtlvt-21" value="" style="endArrow=blockThin;startArrow=blockThin;html=1;rounded=0;startFill=1;endFill=1;" parent="1" edge="1">
          <mxGeometry width="50" height="50" relative="1" as="geometry">
            <mxPoint x="388" y="252" as="sourcePoint" />
            <mxPoint x="411" y="252" as="targetPoint" />
          </mxGeometry>
        </mxCell>
        <mxCell id="JexUMbqz_i8q1vHDtlvt-22" value="" style="endArrow=blockThin;html=1;rounded=0;endFill=1;" parent="1" edge="1">
          <mxGeometry width="50" height="50" relative="1" as="geometry">
            <mxPoint x="489.38699999999994" y="279.097" as="sourcePoint" />
            <mxPoint x="474.05" y="279.11" as="targetPoint" />
          </mxGeometry>
        </mxCell>
        <mxCell id="JexUMbqz_i8q1vHDtlvt-23" value="" style="endArrow=blockThin;startArrow=blockThin;html=1;rounded=0;startFill=1;endFill=1;" parent="1" edge="1">
          <mxGeometry width="50" height="50" relative="1" as="geometry">
            <mxPoint x="467.997" y="251.54700000000003" as="sourcePoint" />
            <mxPoint x="490.99699999999996" y="251.54700000000003" as="targetPoint" />
          </mxGeometry>
        </mxCell>
        <mxCell id="tvAASxh0KpPbqqvKrxWj-1" value="&lt;font style=&quot;font-size: 10px;&quot;&gt;風神の湖・紅魔館・博麗神社方面&lt;/font&gt;" style="text;strokeColor=none;align=center;fillColor=none;html=1;verticalAlign=middle;whiteSpace=wrap;rounded=0;" parent="1" vertex="1">
          <mxGeometry x="210" y="221" width="156" height="30" as="geometry" />
        </mxCell>
        <mxCell id="4Tf6Ut-76BEqadi21yJI-53" value="" style="endArrow=none;html=1;rounded=0;" parent="1" edge="1">
          <mxGeometry width="50" height="50" relative="1" as="geometry">
            <mxPoint x="385" y="326" as="sourcePoint" />
            <mxPoint x="451" y="279.1" as="targetPoint" />
            <Array as="points">
              <mxPoint x="397" y="314" />
              <mxPoint x="397" y="291" />
              <mxPoint x="409" y="279" />
            </Array>
          </mxGeometry>
        </mxCell>
        <mxCell id="Thoatvcf_QEA1k7CGv5Z-1" value="" style="endArrow=none;html=1;rounded=0;" parent="1" edge="1">
          <mxGeometry width="50" height="50" relative="1" as="geometry">
            <mxPoint x="385" y="248" as="sourcePoint" />
            <mxPoint x="451" y="224.10000000000002" as="targetPoint" />
            <Array as="points">
              <mxPoint x="385" y="232" />
              <mxPoint x="393" y="224" />
            </Array>
          </mxGeometry>
        </mxCell>
        <mxCell id="Thoatvcf_QEA1k7CGv5Z-3" value="" style="endArrow=blockThin;html=1;rounded=0;endFill=1;" parent="1" edge="1">
          <mxGeometry width="50" height="50" relative="1" as="geometry">
            <mxPoint x="396" y="224" as="sourcePoint" />
            <mxPoint x="428" y="224" as="targetPoint" />
          </mxGeometry>
        </mxCell>
        <mxCell id="Thoatvcf_QEA1k7CGv5Z-4" value="" style="endArrow=blockThin;html=1;rounded=0;endFill=1;" parent="1" edge="1">
          <mxGeometry width="50" height="50" relative="1" as="geometry">
            <mxPoint x="445.23" y="279" as="sourcePoint" />
            <mxPoint x="416.23" y="279" as="targetPoint" />
          </mxGeometry>
        </mxCell>
        <mxCell id="Thoatvcf_QEA1k7CGv5Z-5" value="" style="rounded=0;whiteSpace=wrap;html=1;" parent="1" vertex="1">
          <mxGeometry x="1437" y="6" width="211" height="188" as="geometry" />
        </mxCell>
        <mxCell id="Thoatvcf_QEA1k7CGv5Z-6" value="凡　例" style="text;html=1;align=center;verticalAlign=middle;resizable=0;points=[];autosize=1;strokeColor=none;fillColor=none;" parent="1" vertex="1">
          <mxGeometry x="1515" y="10" width="55" height="27" as="geometry" />
        </mxCell>
        <mxCell id="Thoatvcf_QEA1k7CGv5Z-7" value="" style="endArrow=none;html=1;rounded=0;" parent="1" edge="1">
          <mxGeometry width="50" height="50" relative="1" as="geometry">
            <mxPoint x="1495" y="48" as="sourcePoint" />
            <mxPoint x="1447" y="48" as="targetPoint" />
          </mxGeometry>
        </mxCell>
        <mxCell id="Thoatvcf_QEA1k7CGv5Z-8" value="狭軌線路（1067㎜）" style="text;html=1;align=center;verticalAlign=middle;resizable=0;points=[];autosize=1;strokeColor=none;fillColor=none;" parent="1" vertex="1">
          <mxGeometry x="1515" y="35" width="130" height="27" as="geometry" />
        </mxCell>
        <mxCell id="Thoatvcf_QEA1k7CGv5Z-9" value="標準軌線路（1435㎜）" style="text;html=1;align=center;verticalAlign=middle;resizable=0;points=[];autosize=1;strokeColor=none;fillColor=none;" parent="1" vertex="1">
          <mxGeometry x="1508" y="61" width="142" height="27" as="geometry" />
        </mxCell>
        <mxCell id="Thoatvcf_QEA1k7CGv5Z-10" value="" style="endArrow=none;html=1;rounded=0;strokeColor=#FF0000;" parent="1" edge="1">
          <mxGeometry width="50" height="50" relative="1" as="geometry">
            <mxPoint x="1495" y="75.64" as="sourcePoint" />
            <mxPoint x="1447" y="75.64" as="targetPoint" />
          </mxGeometry>
        </mxCell>
        <mxCell id="Thoatvcf_QEA1k7CGv5Z-11" value="" style="rounded=0;whiteSpace=wrap;html=1;" parent="1" vertex="1">
          <mxGeometry x="1447" y="93.63999999999999" width="48" height="20" as="geometry" />
        </mxCell>
        <mxCell id="Thoatvcf_QEA1k7CGv5Z-12" value="プラットホーム" style="text;html=1;align=center;verticalAlign=middle;resizable=0;points=[];autosize=1;strokeColor=none;fillColor=none;" parent="1" vertex="1">
          <mxGeometry x="1524.5" y="90" width="103" height="27" as="geometry" />
        </mxCell>
        <mxCell id="Thoatvcf_QEA1k7CGv5Z-13" value="" style="endArrow=none;html=1;rounded=0;" parent="1" edge="1">
          <mxGeometry width="50" height="50" relative="1" as="geometry">
            <mxPoint x="1467" y="129.64" as="sourcePoint" />
            <mxPoint x="1477" y="129.64" as="targetPoint" />
          </mxGeometry>
        </mxCell>
        <mxCell id="Thoatvcf_QEA1k7CGv5Z-14" value="" style="endArrow=none;html=1;rounded=0;" parent="1" edge="1">
          <mxGeometry width="50" height="50" relative="1" as="geometry">
            <mxPoint x="1467" y="133.64" as="sourcePoint" />
            <mxPoint x="1467" y="125.63999999999999" as="targetPoint" />
          </mxGeometry>
        </mxCell>
        <mxCell id="Thoatvcf_QEA1k7CGv5Z-15" value="線路終端" style="text;html=1;align=center;verticalAlign=middle;resizable=0;points=[];autosize=1;strokeColor=none;fillColor=none;" parent="1" vertex="1">
          <mxGeometry x="1539" y="116" width="67" height="27" as="geometry" />
        </mxCell>
        <mxCell id="Thoatvcf_QEA1k7CGv5Z-16" value="" style="endArrow=none;html=1;rounded=0;strokeColor=#0000FF;opacity=50;strokeWidth=5;" parent="1" edge="1">
          <mxGeometry width="50" height="50" relative="1" as="geometry">
            <mxPoint x="1447" y="152" as="sourcePoint" />
            <mxPoint x="1494" y="152" as="targetPoint" />
          </mxGeometry>
        </mxCell>
        <mxCell id="Thoatvcf_QEA1k7CGv5Z-17" value="地下区間 /&amp;nbsp;&lt;span style=&quot;background-color: initial;&quot;&gt;長いトンネル&lt;/span&gt;" style="text;html=1;align=center;verticalAlign=middle;resizable=0;points=[];autosize=1;strokeColor=none;fillColor=none;" parent="1" vertex="1">
          <mxGeometry x="1496" y="139" width="149" height="27" as="geometry" />
        </mxCell>
        <mxCell id="Thoatvcf_QEA1k7CGv5Z-18" value="高架区間 /&amp;nbsp;&lt;span style=&quot;background-color: initial;&quot;&gt;長い橋梁&lt;/span&gt;" style="text;html=1;align=center;verticalAlign=middle;resizable=0;points=[];autosize=1;strokeColor=none;fillColor=none;" parent="1" vertex="1">
          <mxGeometry x="1507" y="162" width="125" height="27" as="geometry" />
        </mxCell>
        <mxCell id="Thoatvcf_QEA1k7CGv5Z-19" value="" style="endArrow=none;html=1;rounded=0;strokeWidth=3;opacity=50;strokeColor=#00FF00;" parent="1" edge="1">
          <mxGeometry width="50" height="50" relative="1" as="geometry">
            <mxPoint x="1447" y="175" as="sourcePoint" />
            <mxPoint x="1494" y="175" as="targetPoint" />
          </mxGeometry>
        </mxCell>
        <mxCell id="Thoatvcf_QEA1k7CGv5Z-20" value="" style="endArrow=none;html=1;rounded=0;" parent="1" edge="1">
          <mxGeometry width="50" height="50" relative="1" as="geometry">
            <mxPoint x="1248" y="368" as="sourcePoint" />
            <mxPoint x="385" y="256" as="targetPoint" />
            <Array as="points">
              <mxPoint x="401" y="368" />
              <mxPoint x="385" y="352" />
            </Array>
          </mxGeometry>
        </mxCell>
        <mxCell id="Thoatvcf_QEA1k7CGv5Z-21" value="" style="endArrow=none;html=1;rounded=0;opacity=50;" parent="1" edge="1">
          <mxGeometry width="50" height="50" relative="1" as="geometry">
            <mxPoint x="385" y="256" as="sourcePoint" />
            <mxPoint x="385" y="248" as="targetPoint" />
          </mxGeometry>
        </mxCell>
        <mxCell id="e4fIU5LmYEqKBodJAHQh-2" value="" style="rounded=0;whiteSpace=wrap;html=1;" parent="1" vertex="1">
          <mxGeometry x="673" y="372" width="78.56" height="20" as="geometry" />
        </mxCell>
        <mxCell id="e4fIU5LmYEqKBodJAHQh-3" value="&lt;span style=&quot;font-size: 15px;&quot;&gt;&lt;b&gt;環状線&lt;/b&gt;&lt;/span&gt;" style="text;strokeColor=none;align=center;fillColor=none;html=1;verticalAlign=middle;whiteSpace=wrap;rounded=0;" parent="1" vertex="1">
          <mxGeometry x="561" y="197" width="56" height="30" as="geometry" />
        </mxCell>
        <mxCell id="e4fIU5LmYEqKBodJAHQh-4" value="" style="rounded=0;whiteSpace=wrap;html=1;" parent="1" vertex="1">
          <mxGeometry x="1105" y="333" width="80" height="20" as="geometry" />
        </mxCell>
        <mxCell id="e4fIU5LmYEqKBodJAHQh-5" value="" style="endArrow=none;html=1;rounded=0;" parent="1" edge="1">
          <mxGeometry width="50" height="50" relative="1" as="geometry">
            <mxPoint x="1049" y="368" as="sourcePoint" />
            <mxPoint x="1193" y="328" as="targetPoint" />
            <Array as="points">
              <mxPoint x="1089" y="328" />
            </Array>
          </mxGeometry>
        </mxCell>
        <mxCell id="e4fIU5LmYEqKBodJAHQh-6" value="" style="endArrow=none;html=1;rounded=0;" parent="1" edge="1">
          <mxGeometry width="50" height="50" relative="1" as="geometry">
            <mxPoint x="1097" y="328" as="sourcePoint" />
            <mxPoint x="1193" y="320" as="targetPoint" />
            <Array as="points">
              <mxPoint x="1105" y="320" />
            </Array>
          </mxGeometry>
        </mxCell>
        <mxCell id="e4fIU5LmYEqKBodJAHQh-7" value="" style="rounded=0;whiteSpace=wrap;html=1;" parent="1" vertex="1">
          <mxGeometry x="1105" y="295.11" width="80" height="20" as="geometry" />
        </mxCell>
        <mxCell id="e4fIU5LmYEqKBodJAHQh-8" value="" style="rounded=0;whiteSpace=wrap;html=1;" parent="1" vertex="1">
          <mxGeometry x="1120" y="373" width="97" height="20" as="geometry" />
        </mxCell>
        <mxCell id="e4fIU5LmYEqKBodJAHQh-9" value="" style="endArrow=none;html=1;rounded=0;" parent="1" edge="1">
          <mxGeometry width="50" height="50" relative="1" as="geometry">
            <mxPoint x="1193" y="324.1" as="sourcePoint" />
            <mxPoint x="1193" y="316.1" as="targetPoint" />
          </mxGeometry>
        </mxCell>
        <mxCell id="e4fIU5LmYEqKBodJAHQh-11" value="" style="endArrow=none;html=1;rounded=0;" parent="1" edge="1">
          <mxGeometry width="50" height="50" relative="1" as="geometry">
            <mxPoint x="1193" y="332.1" as="sourcePoint" />
            <mxPoint x="1193" y="324.1" as="targetPoint" />
          </mxGeometry>
        </mxCell>
        <mxCell id="e4fIU5LmYEqKBodJAHQh-12" value="" style="rounded=0;whiteSpace=wrap;html=1;strokeColor=none;fillColor=#000000;opacity=30;" parent="1" vertex="1">
          <mxGeometry x="1233" y="360" width="32" height="16" as="geometry" />
        </mxCell>
        <mxCell id="e4fIU5LmYEqKBodJAHQh-13" value="湖浜八坂" style="text;strokeColor=none;align=center;fillColor=none;html=1;verticalAlign=middle;whiteSpace=wrap;rounded=0;" parent="1" vertex="1">
          <mxGeometry x="675.78" y="394" width="72.99" height="30" as="geometry" />
        </mxCell>
        <mxCell id="e4fIU5LmYEqKBodJAHQh-14" value="幻想風穴" style="text;strokeColor=none;align=center;fillColor=none;html=1;verticalAlign=middle;whiteSpace=wrap;rounded=0;" parent="1" vertex="1">
          <mxGeometry x="1108.51" y="397" width="72.99" height="30" as="geometry" />
        </mxCell>
        <mxCell id="e4fIU5LmYEqKBodJAHQh-15" value="&lt;font style=&quot;font-size: 10px;&quot;&gt;地霊殿方面&lt;/font&gt;" style="text;strokeColor=none;align=center;fillColor=none;html=1;verticalAlign=middle;whiteSpace=wrap;rounded=0;" parent="1" vertex="1">
          <mxGeometry x="1236" y="369" width="56" height="30" as="geometry" />
        </mxCell>
        <mxCell id="e4fIU5LmYEqKBodJAHQh-16" value="&lt;span style=&quot;font-size: 15px;&quot;&gt;&lt;b&gt;&amp;nbsp;旧都本線&lt;/b&gt;&lt;/span&gt;" style="text;strokeColor=none;align=center;fillColor=none;html=1;verticalAlign=middle;whiteSpace=wrap;rounded=0;" parent="1" vertex="1">
          <mxGeometry x="1226" y="328" width="76" height="30" as="geometry" />
        </mxCell>
        <mxCell id="aX4mZ3GyK745tZyWNKG7-1" value="" style="endArrow=none;html=1;rounded=0;" parent="1" edge="1">
          <mxGeometry width="50" height="50" relative="1" as="geometry">
            <mxPoint x="152" y="550" as="sourcePoint" />
            <mxPoint x="1480" y="534" as="targetPoint" />
            <Array as="points">
              <mxPoint x="1464" y="550" />
            </Array>
          </mxGeometry>
        </mxCell>
        <mxCell id="aX4mZ3GyK745tZyWNKG7-2" value="" style="endArrow=none;html=1;rounded=0;" parent="1" edge="1">
          <mxGeometry width="50" height="50" relative="1" as="geometry">
            <mxPoint x="247" y="550" as="sourcePoint" />
            <mxPoint x="439" y="550" as="targetPoint" />
            <Array as="points">
              <mxPoint x="279" y="517" />
              <mxPoint x="408" y="517" />
            </Array>
          </mxGeometry>
        </mxCell>
        <mxCell id="aX4mZ3GyK745tZyWNKG7-3" value="" style="endArrow=none;html=1;rounded=0;" parent="1" edge="1">
          <mxGeometry width="50" height="50" relative="1" as="geometry">
            <mxPoint x="404" y="517" as="sourcePoint" />
            <mxPoint x="428" y="517" as="targetPoint" />
          </mxGeometry>
        </mxCell>
        <mxCell id="aX4mZ3GyK745tZyWNKG7-4" value="" style="endArrow=none;html=1;rounded=0;" parent="1" edge="1">
          <mxGeometry width="50" height="50" relative="1" as="geometry">
            <mxPoint x="428" y="521" as="sourcePoint" />
            <mxPoint x="428" y="513" as="targetPoint" />
          </mxGeometry>
        </mxCell>
        <mxCell id="aX4mZ3GyK745tZyWNKG7-5" value="" style="endArrow=none;html=1;rounded=0;" parent="1" edge="1">
          <mxGeometry width="50" height="50" relative="1" as="geometry">
            <mxPoint x="257" y="517" as="sourcePoint" />
            <mxPoint x="281" y="517" as="targetPoint" />
          </mxGeometry>
        </mxCell>
        <mxCell id="aX4mZ3GyK745tZyWNKG7-6" value="" style="endArrow=none;html=1;rounded=0;" parent="1" edge="1">
          <mxGeometry width="50" height="50" relative="1" as="geometry">
            <mxPoint x="257" y="521" as="sourcePoint" />
            <mxPoint x="257" y="513" as="targetPoint" />
          </mxGeometry>
        </mxCell>
        <mxCell id="aX4mZ3GyK745tZyWNKG7-7" value="" style="endArrow=none;html=1;rounded=0;" parent="1" edge="1">
          <mxGeometry width="50" height="50" relative="1" as="geometry">
            <mxPoint x="632" y="550" as="sourcePoint" />
            <mxPoint x="824" y="550" as="targetPoint" />
            <Array as="points">
              <mxPoint x="664" y="517" />
              <mxPoint x="793" y="517" />
            </Array>
          </mxGeometry>
        </mxCell>
        <mxCell id="aX4mZ3GyK745tZyWNKG7-13" value="" style="rounded=0;whiteSpace=wrap;html=1;" parent="1" vertex="1">
          <mxGeometry x="520" y="555" width="31" height="20" as="geometry" />
        </mxCell>
        <mxCell id="aX4mZ3GyK745tZyWNKG7-14" value="" style="rounded=0;whiteSpace=wrap;html=1;" parent="1" vertex="1">
          <mxGeometry x="864" y="555" width="31" height="20" as="geometry" />
        </mxCell>
        <mxCell id="aX4mZ3GyK745tZyWNKG7-15" value="" style="endArrow=none;html=1;rounded=0;" parent="1" edge="1">
          <mxGeometry width="50" height="50" relative="1" as="geometry">
            <mxPoint x="1383" y="550" as="sourcePoint" />
            <mxPoint x="1511" y="534" as="targetPoint" />
            <Array as="points">
              <mxPoint x="1400" y="534" />
            </Array>
          </mxGeometry>
        </mxCell>
        <mxCell id="aX4mZ3GyK745tZyWNKG7-16" value="" style="endArrow=none;html=1;rounded=0;" parent="1" edge="1">
          <mxGeometry width="50" height="50" relative="1" as="geometry">
            <mxPoint x="1383" y="534" as="sourcePoint" />
            <mxPoint x="1407" y="534" as="targetPoint" />
          </mxGeometry>
        </mxCell>
        <mxCell id="aX4mZ3GyK745tZyWNKG7-17" value="" style="endArrow=none;html=1;rounded=0;" parent="1" edge="1">
          <mxGeometry width="50" height="50" relative="1" as="geometry">
            <mxPoint x="1383" y="538" as="sourcePoint" />
            <mxPoint x="1383" y="530" as="targetPoint" />
          </mxGeometry>
        </mxCell>
        <mxCell id="aX4mZ3GyK745tZyWNKG7-18" value="" style="rounded=0;whiteSpace=wrap;html=1;" parent="1" vertex="1">
          <mxGeometry x="1060" y="555" width="31" height="20" as="geometry" />
        </mxCell>
        <mxCell id="aX4mZ3GyK745tZyWNKG7-19" value="" style="rounded=0;whiteSpace=wrap;html=1;" parent="1" vertex="1">
          <mxGeometry x="1252" y="526" width="31" height="20" as="geometry" />
        </mxCell>
        <mxCell id="aX4mZ3GyK745tZyWNKG7-20" value="黒谷（信）" style="text;strokeColor=none;align=center;fillColor=none;html=1;verticalAlign=middle;whiteSpace=wrap;rounded=0;" parent="1" vertex="1">
          <mxGeometry x="307" y="551" width="69" height="30" as="geometry" />
        </mxCell>
        <mxCell id="aX4mZ3GyK745tZyWNKG7-21" value="500m定点" style="text;strokeColor=none;align=center;fillColor=none;html=1;verticalAlign=middle;whiteSpace=wrap;rounded=0;" parent="1" vertex="1">
          <mxGeometry x="499" y="571" width="72.99" height="30" as="geometry" />
        </mxCell>
        <mxCell id="aX4mZ3GyK745tZyWNKG7-22" value="1500m定点" style="text;strokeColor=none;align=center;fillColor=none;html=1;verticalAlign=middle;whiteSpace=wrap;rounded=0;" parent="1" vertex="1">
          <mxGeometry x="843" y="572" width="72.99" height="30" as="geometry" />
        </mxCell>
        <mxCell id="aX4mZ3GyK745tZyWNKG7-23" value="下人里（信）" style="text;strokeColor=none;align=center;fillColor=none;html=1;verticalAlign=middle;whiteSpace=wrap;rounded=0;" parent="1" vertex="1">
          <mxGeometry x="688" y="550" width="80" height="30" as="geometry" />
        </mxCell>
        <mxCell id="aX4mZ3GyK745tZyWNKG7-24" value="うつほ定点" style="text;strokeColor=none;align=center;fillColor=none;html=1;verticalAlign=middle;whiteSpace=wrap;rounded=0;" parent="1" vertex="1">
          <mxGeometry x="1039" y="573" width="72.99" height="30" as="geometry" />
        </mxCell>
        <mxCell id="aX4mZ3GyK745tZyWNKG7-25" value="上旧都定点" style="text;strokeColor=none;align=center;fillColor=none;html=1;verticalAlign=middle;whiteSpace=wrap;rounded=0;" parent="1" vertex="1">
          <mxGeometry x="1232.5" y="547" width="70" height="30" as="geometry" />
        </mxCell>
        <mxCell id="aX4mZ3GyK745tZyWNKG7-26" value="深道（信）" style="text;strokeColor=none;align=center;fillColor=none;html=1;verticalAlign=middle;whiteSpace=wrap;rounded=0;" parent="1" vertex="1">
          <mxGeometry x="1387" y="547" width="80" height="30" as="geometry" />
        </mxCell>
        <mxCell id="aX4mZ3GyK745tZyWNKG7-27" value="&lt;font style=&quot;font-size: 10px;&quot;&gt;水橋・地霊殿方面&lt;/font&gt;" style="text;strokeColor=none;align=center;fillColor=none;html=1;verticalAlign=middle;whiteSpace=wrap;rounded=0;" parent="1" vertex="1">
          <mxGeometry x="1478" y="507" width="85" height="21" as="geometry" />
        </mxCell>
        <mxCell id="aX4mZ3GyK745tZyWNKG7-28" value="&lt;font style=&quot;font-size: 10px;&quot;&gt;幻想風穴・守矢神社方面&lt;/font&gt;" style="text;strokeColor=none;align=center;fillColor=none;html=1;verticalAlign=middle;whiteSpace=wrap;rounded=0;" parent="1" vertex="1">
          <mxGeometry x="97" y="523" width="117" height="21" as="geometry" />
        </mxCell>
        <mxCell id="aX4mZ3GyK745tZyWNKG7-29" value="①" style="text;html=1;align=center;verticalAlign=middle;whiteSpace=wrap;rounded=0;" parent="1" vertex="1">
          <mxGeometry x="1099" y="329" width="29" height="30" as="geometry" />
        </mxCell>
        <mxCell id="aX4mZ3GyK745tZyWNKG7-30" value="②" style="text;html=1;align=center;verticalAlign=middle;whiteSpace=wrap;rounded=0;" parent="1" vertex="1">
          <mxGeometry x="1099" y="290.11" width="29" height="30" as="geometry" />
        </mxCell>
        <mxCell id="aX4mZ3GyK745tZyWNKG7-31" value="⓪" style="text;html=1;align=center;verticalAlign=middle;whiteSpace=wrap;rounded=0;" parent="1" vertex="1">
          <mxGeometry x="1115" y="368" width="29" height="30" as="geometry" />
        </mxCell>
        <mxCell id="aX4mZ3GyK745tZyWNKG7-32" value="" style="endArrow=none;html=1;rounded=0;" parent="1" edge="1">
          <mxGeometry width="50" height="50" relative="1" as="geometry">
            <mxPoint x="200" y="752" as="sourcePoint" />
            <mxPoint x="1523" y="752" as="targetPoint" />
            <Array as="points">
              <mxPoint x="584" y="752" />
              <mxPoint x="600" y="736" />
              <mxPoint x="688" y="736" />
              <mxPoint x="703" y="752" />
              <mxPoint x="984" y="752" />
              <mxPoint x="992" y="744" />
              <mxPoint x="1152" y="744" />
              <mxPoint x="1160" y="752" />
            </Array>
          </mxGeometry>
        </mxCell>
        <mxCell id="aX4mZ3GyK745tZyWNKG7-33" value="" style="endArrow=none;html=1;rounded=0;" parent="1" edge="1">
          <mxGeometry width="50" height="50" relative="1" as="geometry">
            <mxPoint x="200" y="736" as="sourcePoint" />
            <mxPoint x="304" y="752" as="targetPoint" />
            <Array as="points">
              <mxPoint x="288" y="736" />
            </Array>
          </mxGeometry>
        </mxCell>
        <mxCell id="aX4mZ3GyK745tZyWNKG7-35" value="" style="rounded=0;whiteSpace=wrap;html=1;" parent="1" vertex="1">
          <mxGeometry x="192" y="757" width="89.56" height="20" as="geometry" />
        </mxCell>
        <mxCell id="aX4mZ3GyK745tZyWNKG7-36" value="" style="rounded=0;whiteSpace=wrap;html=1;" parent="1" vertex="1">
          <mxGeometry x="192" y="711" width="89.56" height="20" as="geometry" />
        </mxCell>
        <mxCell id="aX4mZ3GyK745tZyWNKG7-37" value="" style="endArrow=none;html=1;rounded=0;" parent="1" edge="1">
          <mxGeometry width="50" height="50" relative="1" as="geometry">
            <mxPoint x="200" y="740" as="sourcePoint" />
            <mxPoint x="200" y="732" as="targetPoint" />
          </mxGeometry>
        </mxCell>
        <mxCell id="aX4mZ3GyK745tZyWNKG7-38" value="" style="endArrow=none;html=1;rounded=0;" parent="1" edge="1">
          <mxGeometry width="50" height="50" relative="1" as="geometry">
            <mxPoint x="200" y="756" as="sourcePoint" />
            <mxPoint x="200" y="748" as="targetPoint" />
          </mxGeometry>
        </mxCell>
        <mxCell id="aX4mZ3GyK745tZyWNKG7-39" value="" style="rounded=0;whiteSpace=wrap;html=1;" parent="1" vertex="1">
          <mxGeometry x="180" y="711" width="16" height="66" as="geometry" />
        </mxCell>
        <mxCell id="aX4mZ3GyK745tZyWNKG7-40" value="" style="rounded=0;whiteSpace=wrap;html=1;strokeColor=#FFFFFF;" parent="1" vertex="1">
          <mxGeometry x="190" y="712" width="11" height="18" as="geometry" />
        </mxCell>
        <mxCell id="aX4mZ3GyK745tZyWNKG7-41" value="" style="rounded=0;whiteSpace=wrap;html=1;strokeColor=#FFFFFF;" parent="1" vertex="1">
          <mxGeometry x="191" y="758" width="11" height="18" as="geometry" />
        </mxCell>
        <mxCell id="aX4mZ3GyK745tZyWNKG7-42" value="" style="endArrow=none;html=1;rounded=0;" parent="1" edge="1">
          <mxGeometry width="50" height="50" relative="1" as="geometry">
            <mxPoint x="336" y="752" as="sourcePoint" />
            <mxPoint x="188" y="688" as="targetPoint" />
            <Array as="points">
              <mxPoint x="292" y="704" />
              <mxPoint x="204" y="704" />
            </Array>
          </mxGeometry>
        </mxCell>
        <mxCell id="aX4mZ3GyK745tZyWNKG7-43" value="" style="endArrow=none;html=1;rounded=0;" parent="1" edge="1">
          <mxGeometry width="50" height="50" relative="1" as="geometry">
            <mxPoint x="156" y="688" as="sourcePoint" />
            <mxPoint x="284" y="704" as="targetPoint" />
            <Array as="points">
              <mxPoint x="268" y="688" />
            </Array>
          </mxGeometry>
        </mxCell>
        <mxCell id="aX4mZ3GyK745tZyWNKG7-44" value="" style="rounded=0;whiteSpace=wrap;html=1;" parent="1" vertex="1">
          <mxGeometry x="193" y="665" width="71" height="20" as="geometry" />
        </mxCell>
        <mxCell id="aX4mZ3GyK745tZyWNKG7-45" value="&lt;font style=&quot;font-size: 10px;&quot;&gt;幻想風穴・守矢神社方面&lt;/font&gt;" style="text;strokeColor=none;align=center;fillColor=none;html=1;verticalAlign=middle;whiteSpace=wrap;rounded=0;" parent="1" vertex="1">
          <mxGeometry x="67" y="667" width="117" height="21" as="geometry" />
        </mxCell>
        <mxCell id="aX4mZ3GyK745tZyWNKG7-46" value="" style="rounded=0;whiteSpace=wrap;html=1;" parent="1" vertex="1">
          <mxGeometry x="408" y="728" width="78.56" height="20" as="geometry" />
        </mxCell>
        <mxCell id="aX4mZ3GyK745tZyWNKG7-47" value="" style="endArrow=none;html=1;rounded=0;" parent="1" edge="1">
          <mxGeometry width="50" height="50" relative="1" as="geometry">
            <mxPoint x="188" y="704" as="sourcePoint" />
            <mxPoint x="212" y="704" as="targetPoint" />
          </mxGeometry>
        </mxCell>
        <mxCell id="aX4mZ3GyK745tZyWNKG7-48" value="" style="endArrow=none;html=1;rounded=0;" parent="1" edge="1">
          <mxGeometry width="50" height="50" relative="1" as="geometry">
            <mxPoint x="188" y="708" as="sourcePoint" />
            <mxPoint x="188" y="700" as="targetPoint" />
          </mxGeometry>
        </mxCell>
        <mxCell id="aX4mZ3GyK745tZyWNKG7-49" value="" style="endArrow=none;html=1;rounded=0;" parent="1" edge="1">
          <mxGeometry width="50" height="50" relative="1" as="geometry">
            <mxPoint x="584" y="752" as="sourcePoint" />
            <mxPoint x="703" y="752" as="targetPoint" />
            <Array as="points">
              <mxPoint x="600" y="768" />
              <mxPoint x="688" y="768" />
            </Array>
          </mxGeometry>
        </mxCell>
        <mxCell id="aX4mZ3GyK745tZyWNKG7-50" value="" style="rounded=0;whiteSpace=wrap;html=1;" parent="1" vertex="1">
          <mxGeometry x="604" y="712" width="80" height="20" as="geometry" />
        </mxCell>
        <mxCell id="aX4mZ3GyK745tZyWNKG7-51" value="" style="rounded=0;whiteSpace=wrap;html=1;" parent="1" vertex="1">
          <mxGeometry x="604" y="772" width="80" height="20" as="geometry" />
        </mxCell>
        <mxCell id="aX4mZ3GyK745tZyWNKG7-52" value="" style="endArrow=none;html=1;rounded=0;" parent="1" edge="1">
          <mxGeometry width="50" height="50" relative="1" as="geometry">
            <mxPoint x="768" y="752" as="sourcePoint" />
            <mxPoint x="912" y="752" as="targetPoint" />
            <Array as="points">
              <mxPoint x="796" y="780" />
              <mxPoint x="884" y="780" />
            </Array>
          </mxGeometry>
        </mxCell>
        <mxCell id="aX4mZ3GyK745tZyWNKG7-53" value="" style="rounded=0;whiteSpace=wrap;html=1;" parent="1" vertex="1">
          <mxGeometry x="800" y="756" width="80" height="20" as="geometry" />
        </mxCell>
        <mxCell id="aX4mZ3GyK745tZyWNKG7-55" value="" style="rounded=0;whiteSpace=wrap;html=1;" parent="1" vertex="1">
          <mxGeometry x="1031.99" y="720" width="80" height="20" as="geometry" />
        </mxCell>
        <mxCell id="aX4mZ3GyK745tZyWNKG7-56" value="" style="endArrow=none;html=1;rounded=0;" parent="1" edge="1">
          <mxGeometry width="50" height="50" relative="1" as="geometry">
            <mxPoint x="999" y="744" as="sourcePoint" />
            <mxPoint x="1144" y="744" as="targetPoint" />
            <Array as="points">
              <mxPoint x="1027" y="716" />
              <mxPoint x="1116" y="716" />
            </Array>
          </mxGeometry>
        </mxCell>
        <mxCell id="aX4mZ3GyK745tZyWNKG7-57" value="" style="endArrow=none;html=1;rounded=0;" parent="1" edge="1">
          <mxGeometry width="50" height="50" relative="1" as="geometry">
            <mxPoint x="983" y="752" as="sourcePoint" />
            <mxPoint x="1160" y="752" as="targetPoint" />
            <Array as="points">
              <mxPoint x="991" y="760" />
              <mxPoint x="1152" y="760" />
            </Array>
          </mxGeometry>
        </mxCell>
        <mxCell id="aX4mZ3GyK745tZyWNKG7-58" value="" style="rounded=0;whiteSpace=wrap;html=1;" parent="1" vertex="1">
          <mxGeometry x="1031.99" y="764" width="80" height="20" as="geometry" />
        </mxCell>
        <mxCell id="aX4mZ3GyK745tZyWNKG7-59" value="" style="endArrow=none;html=1;rounded=0;" parent="1" edge="1">
          <mxGeometry width="50" height="50" relative="1" as="geometry">
            <mxPoint x="999" y="760" as="sourcePoint" />
            <mxPoint x="1144" y="760" as="targetPoint" />
            <Array as="points">
              <mxPoint x="1027.49" y="788" />
              <mxPoint x="1116.49" y="788" />
            </Array>
          </mxGeometry>
        </mxCell>
        <mxCell id="aX4mZ3GyK745tZyWNKG7-60" value="" style="rounded=0;whiteSpace=wrap;html=1;" parent="1" vertex="1">
          <mxGeometry x="1295" y="756" width="74" height="20" as="geometry" />
        </mxCell>
        <mxCell id="aX4mZ3GyK745tZyWNKG7-61" value="" style="endArrow=none;html=1;rounded=0;" parent="1" edge="1">
          <mxGeometry width="50" height="50" relative="1" as="geometry">
            <mxPoint x="1391" y="752" as="sourcePoint" />
            <mxPoint x="1519" y="724" as="targetPoint" />
            <Array as="points">
              <mxPoint x="1419" y="724" />
            </Array>
          </mxGeometry>
        </mxCell>
        <mxCell id="aX4mZ3GyK745tZyWNKG7-62" value="" style="rounded=0;whiteSpace=wrap;html=1;" parent="1" vertex="1">
          <mxGeometry x="1442" y="728" width="81" height="20" as="geometry" />
        </mxCell>
        <mxCell id="aX4mZ3GyK745tZyWNKG7-63" value="" style="rounded=0;whiteSpace=wrap;html=1;" parent="1" vertex="1">
          <mxGeometry x="1476" y="692" width="47" height="20" as="geometry" />
        </mxCell>
        <mxCell id="aX4mZ3GyK745tZyWNKG7-64" value="" style="endArrow=none;html=1;rounded=0;" parent="1" edge="1">
          <mxGeometry width="50" height="50" relative="1" as="geometry">
            <mxPoint x="1431" y="724" as="sourcePoint" />
            <mxPoint x="1519" y="716" as="targetPoint" />
            <Array as="points">
              <mxPoint x="1439" y="716" />
            </Array>
          </mxGeometry>
        </mxCell>
        <mxCell id="aX4mZ3GyK745tZyWNKG7-65" value="" style="endArrow=none;html=1;rounded=0;" parent="1" edge="1">
          <mxGeometry width="50" height="50" relative="1" as="geometry">
            <mxPoint x="1447" y="716" as="sourcePoint" />
            <mxPoint x="1519" y="688" as="targetPoint" />
            <Array as="points">
              <mxPoint x="1475" y="688" />
            </Array>
          </mxGeometry>
        </mxCell>
        <mxCell id="aX4mZ3GyK745tZyWNKG7-66" value="" style="rounded=0;whiteSpace=wrap;html=1;" parent="1" vertex="1">
          <mxGeometry x="1522" y="692" width="15" height="56" as="geometry" />
        </mxCell>
        <mxCell id="aX4mZ3GyK745tZyWNKG7-67" value="" style="endArrow=none;html=1;rounded=0;" parent="1" edge="1">
          <mxGeometry width="50" height="50" relative="1" as="geometry">
            <mxPoint x="1519" y="691" as="sourcePoint" />
            <mxPoint x="1519" y="685" as="targetPoint" />
          </mxGeometry>
        </mxCell>
        <mxCell id="aX4mZ3GyK745tZyWNKG7-70" value="" style="endArrow=none;html=1;rounded=0;" parent="1" edge="1">
          <mxGeometry width="50" height="50" relative="1" as="geometry">
            <mxPoint x="1519" y="719" as="sourcePoint" />
            <mxPoint x="1519" y="713" as="targetPoint" />
          </mxGeometry>
        </mxCell>
        <mxCell id="aX4mZ3GyK745tZyWNKG7-71" value="" style="endArrow=none;html=1;rounded=0;" parent="1" edge="1">
          <mxGeometry width="50" height="50" relative="1" as="geometry">
            <mxPoint x="1519" y="727" as="sourcePoint" />
            <mxPoint x="1519" y="721" as="targetPoint" />
          </mxGeometry>
        </mxCell>
        <mxCell id="aX4mZ3GyK745tZyWNKG7-72" value="" style="endArrow=none;html=1;rounded=0;" parent="1" edge="1">
          <mxGeometry width="50" height="50" relative="1" as="geometry">
            <mxPoint x="1523" y="755" as="sourcePoint" />
            <mxPoint x="1523" y="749" as="targetPoint" />
          </mxGeometry>
        </mxCell>
        <mxCell id="aX4mZ3GyK745tZyWNKG7-73" value="" style="rounded=0;whiteSpace=wrap;html=1;strokeColor=#FFFFFF;" parent="1" vertex="1">
          <mxGeometry x="1517" y="693" width="11" height="18" as="geometry" />
        </mxCell>
        <mxCell id="aX4mZ3GyK745tZyWNKG7-74" value="" style="rounded=0;whiteSpace=wrap;html=1;strokeColor=#FFFFFF;" parent="1" vertex="1">
          <mxGeometry x="1517" y="729" width="11" height="18" as="geometry" />
        </mxCell>
        <mxCell id="aX4mZ3GyK745tZyWNKG7-75" value="水橋" style="text;strokeColor=none;align=center;fillColor=none;html=1;verticalAlign=middle;whiteSpace=wrap;rounded=0;" parent="1" vertex="1">
          <mxGeometry x="202" y="775" width="54" height="30" as="geometry" />
        </mxCell>
        <mxCell id="aX4mZ3GyK745tZyWNKG7-76" value="サトリ" style="text;strokeColor=none;align=center;fillColor=none;html=1;verticalAlign=middle;whiteSpace=wrap;rounded=0;" parent="1" vertex="1">
          <mxGeometry x="412.78" y="750" width="69" height="30" as="geometry" />
        </mxCell>
        <mxCell id="aX4mZ3GyK745tZyWNKG7-77" value="星熊温泉" style="text;strokeColor=none;align=center;fillColor=none;html=1;verticalAlign=middle;whiteSpace=wrap;rounded=0;" parent="1" vertex="1">
          <mxGeometry x="609.5" y="790" width="69" height="30" as="geometry" />
        </mxCell>
        <mxCell id="aX4mZ3GyK745tZyWNKG7-78" value="東旧都" style="text;strokeColor=none;align=center;fillColor=none;html=1;verticalAlign=middle;whiteSpace=wrap;rounded=0;" parent="1" vertex="1">
          <mxGeometry x="805.5" y="778" width="69" height="30" as="geometry" />
        </mxCell>
        <mxCell id="aX4mZ3GyK745tZyWNKG7-79" value="旧都" style="text;strokeColor=none;align=center;fillColor=none;html=1;verticalAlign=middle;whiteSpace=wrap;rounded=0;" parent="1" vertex="1">
          <mxGeometry x="1053.99" y="784" width="36" height="30" as="geometry" />
        </mxCell>
        <mxCell id="aX4mZ3GyK745tZyWNKG7-80" value="上古明地" style="text;strokeColor=none;align=center;fillColor=none;html=1;verticalAlign=middle;whiteSpace=wrap;rounded=0;" parent="1" vertex="1">
          <mxGeometry x="1296.5" y="772" width="69" height="30" as="geometry" />
        </mxCell>
        <mxCell id="aX4mZ3GyK745tZyWNKG7-81" value="地霊殿" style="text;strokeColor=none;align=center;fillColor=none;html=1;verticalAlign=middle;whiteSpace=wrap;rounded=0;" parent="1" vertex="1">
          <mxGeometry x="1467" y="754" width="49" height="30" as="geometry" />
        </mxCell>
        <mxCell id="aX4mZ3GyK745tZyWNKG7-84" value="&lt;font color=&quot;#0400ff&quot;&gt;ループ線トンネル区間&lt;/font&gt;" style="text;html=1;align=center;verticalAlign=middle;whiteSpace=wrap;rounded=0;" parent="1" vertex="1">
          <mxGeometry x="613" y="477" width="221" height="30" as="geometry" />
        </mxCell>
        <mxCell id="aX4mZ3GyK745tZyWNKG7-85" value="" style="rounded=0;whiteSpace=wrap;html=1;strokeColor=none;fillColor=#00FF00;opacity=30;" parent="1" vertex="1">
          <mxGeometry x="969" y="509" width="63" height="95" as="geometry" />
        </mxCell>
        <mxCell id="aX4mZ3GyK745tZyWNKG7-87" value="&lt;font color=&quot;#00b803&quot;&gt;倒懸橋梁区間&lt;/font&gt;" style="text;html=1;align=center;verticalAlign=middle;whiteSpace=wrap;rounded=0;" parent="1" vertex="1">
          <mxGeometry x="964" y="480" width="80" height="30" as="geometry" />
        </mxCell>
        <mxCell id="aX4mZ3GyK745tZyWNKG7-88" value="①" style="text;html=1;align=center;verticalAlign=middle;whiteSpace=wrap;rounded=0;" parent="1" vertex="1">
          <mxGeometry x="257" y="752" width="29" height="30" as="geometry" />
        </mxCell>
        <mxCell id="aX4mZ3GyK745tZyWNKG7-89" value="②" style="text;html=1;align=center;verticalAlign=middle;whiteSpace=wrap;rounded=0;" parent="1" vertex="1">
          <mxGeometry x="257" y="706" width="29" height="30" as="geometry" />
        </mxCell>
        <mxCell id="aX4mZ3GyK745tZyWNKG7-90" value="③" style="text;html=1;align=center;verticalAlign=middle;whiteSpace=wrap;rounded=0;" parent="1" vertex="1">
          <mxGeometry x="240" y="660" width="29" height="30" as="geometry" />
        </mxCell>
        <mxCell id="aX4mZ3GyK745tZyWNKG7-91" value="①②" style="text;html=1;align=center;verticalAlign=middle;whiteSpace=wrap;rounded=0;" parent="1" vertex="1">
          <mxGeometry x="1027" y="759" width="42" height="30" as="geometry" />
        </mxCell>
        <mxCell id="aX4mZ3GyK745tZyWNKG7-92" value="③④" style="text;html=1;align=center;verticalAlign=middle;whiteSpace=wrap;rounded=0;" parent="1" vertex="1">
          <mxGeometry x="1033" y="715" width="29" height="30" as="geometry" />
        </mxCell>
        <mxCell id="aX4mZ3GyK745tZyWNKG7-93" value="①②" style="text;html=1;align=center;verticalAlign=middle;whiteSpace=wrap;rounded=0;" parent="1" vertex="1">
          <mxGeometry x="1443" y="723" width="29" height="30" as="geometry" />
        </mxCell>
        <mxCell id="aX4mZ3GyK745tZyWNKG7-94" value="③④" style="text;html=1;align=center;verticalAlign=middle;whiteSpace=wrap;rounded=0;" parent="1" vertex="1">
          <mxGeometry x="1476" y="687" width="29" height="30" as="geometry" />
        </mxCell>
        <mxCell id="M3DlhWOVSnEDCe1zX0kJ-1" value="" style="rounded=0;whiteSpace=wrap;html=1;" vertex="1" parent="1">
          <mxGeometry x="1180" y="757" width="80" height="17" as="geometry" />
        </mxCell>
        <mxCell id="M3DlhWOVSnEDCe1zX0kJ-2" value="" style="endArrow=none;html=1;rounded=0;" edge="1" parent="1">
          <mxGeometry width="50" height="50" relative="1" as="geometry">
            <mxPoint x="1284" y="752" as="sourcePoint" />
            <mxPoint x="1380" y="752" as="targetPoint" />
            <Array as="points">
              <mxPoint x="1292" y="743" />
              <mxPoint x="1372" y="743" />
            </Array>
          </mxGeometry>
        </mxCell>
        <mxCell id="M3DlhWOVSnEDCe1zX0kJ-3" value="" style="rounded=0;whiteSpace=wrap;html=1;" vertex="1" parent="1">
          <mxGeometry x="1295" y="719" width="74" height="20" as="geometry" />
        </mxCell>
        <mxCell id="M3DlhWOVSnEDCe1zX0kJ-4" value="下旧都" style="text;strokeColor=none;align=center;fillColor=none;html=1;verticalAlign=middle;whiteSpace=wrap;rounded=0;" vertex="1" parent="1">
          <mxGeometry x="1198" y="771" width="43" height="30" as="geometry" />
        </mxCell>
      </root>
    </mxGraphModel>
  </diagram>
</mxfile>
